<mxfile host="app.diagrams.net" agent="Mozilla/5.0 (Windows NT 10.0; Win64; x64) AppleWebKit/537.36 (KHTML, like Gecko) Chrome/130.0.0.0 Safari/537.36 Edg/130.0.0.0" version="24.8.3">
  <diagram name="Page-1" id="-YXhxJSzMgEk8GDfapOJ">
    <mxGraphModel dx="1572" dy="910" grid="1" gridSize="10" guides="1" tooltips="1" connect="1" arrows="1" fold="1" page="1" pageScale="1" pageWidth="850" pageHeight="1100" math="0" shadow="0">
      <root>
        <object label="" id="0">
          <mxCell />
        </object>
        <mxCell id="1" parent="0" />
        <object label="POOL" placeholders="1" id="XUXB3hVBXkxuwXdUqQ0L-1">
          <mxCell style="swimlane;childLayout=stackLayout;resizeParent=1;resizeParentMax=0;startSize=20;html=1;" parent="1" vertex="1">
            <mxGeometry x="180" y="50" width="1070" height="1090" as="geometry" />
          </mxCell>
        </object>
        <mxCell id="XUXB3hVBXkxuwXdUqQ0L-2" value="CUSTOMER" style="swimlane;startSize=20;html=1;" parent="XUXB3hVBXkxuwXdUqQ0L-1" vertex="1">
          <mxGeometry y="20" width="180" height="1070" as="geometry" />
        </mxCell>
        <mxCell id="B20dKyrCsiuIhfEmM-yy-7" value="Open ticket" style="rounded=1;whiteSpace=wrap;html=1;" vertex="1" parent="XUXB3hVBXkxuwXdUqQ0L-2">
          <mxGeometry x="15" y="100" width="90" height="40" as="geometry" />
        </mxCell>
        <mxCell id="B20dKyrCsiuIhfEmM-yy-36" value="Provide feedback" style="rounded=1;whiteSpace=wrap;html=1;" vertex="1" parent="XUXB3hVBXkxuwXdUqQ0L-2">
          <mxGeometry x="10" y="370" width="120" height="60" as="geometry" />
        </mxCell>
        <mxCell id="B20dKyrCsiuIhfEmM-yy-69" style="edgeStyle=orthogonalEdgeStyle;rounded=0;orthogonalLoop=1;jettySize=auto;html=1;entryX=0.5;entryY=0;entryDx=0;entryDy=0;" edge="1" parent="XUXB3hVBXkxuwXdUqQ0L-2" source="B20dKyrCsiuIhfEmM-yy-48" target="B20dKyrCsiuIhfEmM-yy-68">
          <mxGeometry relative="1" as="geometry" />
        </mxCell>
        <mxCell id="B20dKyrCsiuIhfEmM-yy-48" value="Notify Customer that Ticket has been resolved" style="rounded=1;whiteSpace=wrap;html=1;" vertex="1" parent="XUXB3hVBXkxuwXdUqQ0L-2">
          <mxGeometry x="40" y="700" width="120" height="60" as="geometry" />
        </mxCell>
        <mxCell id="B20dKyrCsiuIhfEmM-yy-68" value="" style="ellipse;html=1;shape=endState;fillColor=#000000;strokeColor=#ff0000;" vertex="1" parent="XUXB3hVBXkxuwXdUqQ0L-2">
          <mxGeometry x="75" y="800" width="30" height="30" as="geometry" />
        </mxCell>
        <mxCell id="B20dKyrCsiuIhfEmM-yy-70" value="" style="ellipse;html=1;shape=startState;fillColor=#000000;strokeColor=#ff0000;" vertex="1" parent="XUXB3hVBXkxuwXdUqQ0L-2">
          <mxGeometry x="45" y="40" width="30" height="30" as="geometry" />
        </mxCell>
        <mxCell id="B20dKyrCsiuIhfEmM-yy-71" value="" style="edgeStyle=orthogonalEdgeStyle;html=1;verticalAlign=bottom;endArrow=open;endSize=8;strokeColor=#ff0000;rounded=0;entryX=0.5;entryY=0;entryDx=0;entryDy=0;" edge="1" source="B20dKyrCsiuIhfEmM-yy-70" parent="XUXB3hVBXkxuwXdUqQ0L-2" target="B20dKyrCsiuIhfEmM-yy-7">
          <mxGeometry relative="1" as="geometry">
            <mxPoint x="415" y="120" as="targetPoint" />
          </mxGeometry>
        </mxCell>
        <mxCell id="B20dKyrCsiuIhfEmM-yy-2" value="SUPPORT TICKET" style="swimlane;startSize=20;html=1;" vertex="1" parent="XUXB3hVBXkxuwXdUqQ0L-1">
          <mxGeometry x="180" y="20" width="190" height="1070" as="geometry" />
        </mxCell>
        <mxCell id="B20dKyrCsiuIhfEmM-yy-15" style="edgeStyle=orthogonalEdgeStyle;rounded=0;orthogonalLoop=1;jettySize=auto;html=1;entryX=0.5;entryY=0;entryDx=0;entryDy=0;" edge="1" parent="B20dKyrCsiuIhfEmM-yy-2" source="B20dKyrCsiuIhfEmM-yy-8" target="B20dKyrCsiuIhfEmM-yy-14">
          <mxGeometry relative="1" as="geometry" />
        </mxCell>
        <mxCell id="B20dKyrCsiuIhfEmM-yy-8" value="Assign Agent(Support Agent)" style="rounded=1;whiteSpace=wrap;html=1;" vertex="1" parent="B20dKyrCsiuIhfEmM-yy-2">
          <mxGeometry x="22.5" y="60" width="95" height="50" as="geometry" />
        </mxCell>
        <mxCell id="B20dKyrCsiuIhfEmM-yy-53" style="edgeStyle=orthogonalEdgeStyle;rounded=0;orthogonalLoop=1;jettySize=auto;html=1;" edge="1" parent="B20dKyrCsiuIhfEmM-yy-2" source="B20dKyrCsiuIhfEmM-yy-14" target="B20dKyrCsiuIhfEmM-yy-16">
          <mxGeometry relative="1" as="geometry" />
        </mxCell>
        <mxCell id="B20dKyrCsiuIhfEmM-yy-14" value="Resolve Ticket" style="rounded=1;whiteSpace=wrap;html=1;" vertex="1" parent="B20dKyrCsiuIhfEmM-yy-2">
          <mxGeometry x="15" y="150" width="110" height="50" as="geometry" />
        </mxCell>
        <mxCell id="B20dKyrCsiuIhfEmM-yy-79" style="edgeStyle=orthogonalEdgeStyle;rounded=0;orthogonalLoop=1;jettySize=auto;html=1;entryX=0.5;entryY=0;entryDx=0;entryDy=0;" edge="1" parent="B20dKyrCsiuIhfEmM-yy-2" source="B20dKyrCsiuIhfEmM-yy-16" target="B20dKyrCsiuIhfEmM-yy-54">
          <mxGeometry relative="1" as="geometry" />
        </mxCell>
        <mxCell id="B20dKyrCsiuIhfEmM-yy-16" value="Update Ticket Status" style="rounded=1;whiteSpace=wrap;html=1;" vertex="1" parent="B20dKyrCsiuIhfEmM-yy-2">
          <mxGeometry x="20" y="240" width="100" height="50" as="geometry" />
        </mxCell>
        <mxCell id="B20dKyrCsiuIhfEmM-yy-54" value="Add notes" style="rounded=1;whiteSpace=wrap;html=1;" vertex="1" parent="B20dKyrCsiuIhfEmM-yy-2">
          <mxGeometry x="25" y="350" width="90" height="40" as="geometry" />
        </mxCell>
        <mxCell id="XUXB3hVBXkxuwXdUqQ0L-3" value="SUPPORT AGENT" style="swimlane;startSize=20;html=1;" parent="XUXB3hVBXkxuwXdUqQ0L-1" vertex="1">
          <mxGeometry x="370" y="20" width="195" height="1070" as="geometry" />
        </mxCell>
        <mxCell id="B20dKyrCsiuIhfEmM-yy-35" value="" style="edgeStyle=orthogonalEdgeStyle;rounded=0;orthogonalLoop=1;jettySize=auto;html=1;" edge="1" parent="XUXB3hVBXkxuwXdUqQ0L-3" source="B20dKyrCsiuIhfEmM-yy-11" target="B20dKyrCsiuIhfEmM-yy-30">
          <mxGeometry relative="1" as="geometry" />
        </mxCell>
        <mxCell id="B20dKyrCsiuIhfEmM-yy-11" value="Support Agent assigned to Support ticket" style="rounded=1;whiteSpace=wrap;html=1;" vertex="1" parent="XUXB3hVBXkxuwXdUqQ0L-3">
          <mxGeometry x="15" y="140" width="120" height="60" as="geometry" />
        </mxCell>
        <mxCell id="B20dKyrCsiuIhfEmM-yy-25" value="Resolve Ticket" style="rounded=1;whiteSpace=wrap;html=1;" vertex="1" parent="XUXB3hVBXkxuwXdUqQ0L-3">
          <mxGeometry x="30" y="230" width="90" height="50" as="geometry" />
        </mxCell>
        <mxCell id="B20dKyrCsiuIhfEmM-yy-30" value="Condition" style="rhombus;whiteSpace=wrap;html=1;fontColor=#000000;fillColor=#ffffc0;strokeColor=#ff0000;" vertex="1" parent="XUXB3hVBXkxuwXdUqQ0L-3">
          <mxGeometry x="30" y="310" width="80" height="40" as="geometry" />
        </mxCell>
        <mxCell id="B20dKyrCsiuIhfEmM-yy-33" value="If Resolved:" style="text;strokeColor=none;align=center;fillColor=none;html=1;verticalAlign=middle;whiteSpace=wrap;rounded=0;" vertex="1" parent="XUXB3hVBXkxuwXdUqQ0L-3">
          <mxGeometry y="340" width="60" height="30" as="geometry" />
        </mxCell>
        <mxCell id="B20dKyrCsiuIhfEmM-yy-34" value="Request for feedback" style="rounded=1;whiteSpace=wrap;html=1;" vertex="1" parent="XUXB3hVBXkxuwXdUqQ0L-3">
          <mxGeometry x="22.5" y="390" width="105" height="50" as="geometry" />
        </mxCell>
        <mxCell id="B20dKyrCsiuIhfEmM-yy-31" value="no" style="edgeStyle=orthogonalEdgeStyle;html=1;align=left;verticalAlign=bottom;endArrow=open;endSize=8;strokeColor=#ff0000;rounded=0;" edge="1" parent="XUXB3hVBXkxuwXdUqQ0L-3">
          <mxGeometry x="-1" relative="1" as="geometry">
            <mxPoint x="140" y="480" as="targetPoint" />
            <mxPoint x="110" y="334.38" as="sourcePoint" />
            <Array as="points">
              <mxPoint x="160" y="334" />
              <mxPoint x="160" y="320" />
              <mxPoint x="140" y="320" />
            </Array>
          </mxGeometry>
        </mxCell>
        <mxCell id="B20dKyrCsiuIhfEmM-yy-59" value="" style="edgeStyle=orthogonalEdgeStyle;rounded=0;orthogonalLoop=1;jettySize=auto;html=1;" edge="1" parent="XUXB3hVBXkxuwXdUqQ0L-3" source="B20dKyrCsiuIhfEmM-yy-38" target="B20dKyrCsiuIhfEmM-yy-56">
          <mxGeometry relative="1" as="geometry" />
        </mxCell>
        <mxCell id="B20dKyrCsiuIhfEmM-yy-38" value="Escalate Ticket" style="rounded=1;whiteSpace=wrap;html=1;" vertex="1" parent="XUXB3hVBXkxuwXdUqQ0L-3">
          <mxGeometry x="40" y="480" width="120" height="60" as="geometry" />
        </mxCell>
        <mxCell id="B20dKyrCsiuIhfEmM-yy-32" value="yes" style="edgeStyle=orthogonalEdgeStyle;html=1;align=left;verticalAlign=top;endArrow=open;endSize=8;strokeColor=#ff0000;rounded=0;entryX=0.5;entryY=0;entryDx=0;entryDy=0;" edge="1" source="B20dKyrCsiuIhfEmM-yy-30" parent="XUXB3hVBXkxuwXdUqQ0L-3" target="B20dKyrCsiuIhfEmM-yy-34">
          <mxGeometry x="-1" relative="1" as="geometry">
            <mxPoint x="70" y="330" as="targetPoint" />
          </mxGeometry>
        </mxCell>
        <mxCell id="B20dKyrCsiuIhfEmM-yy-49" value="Else" style="text;strokeColor=none;align=center;fillColor=none;html=1;verticalAlign=middle;whiteSpace=wrap;rounded=0;" vertex="1" parent="XUXB3hVBXkxuwXdUqQ0L-3">
          <mxGeometry x="135" y="350" width="60" height="30" as="geometry" />
        </mxCell>
        <mxCell id="B20dKyrCsiuIhfEmM-yy-56" value="Add knowledge base" style="rounded=1;whiteSpace=wrap;html=1;" vertex="1" parent="XUXB3hVBXkxuwXdUqQ0L-3">
          <mxGeometry x="37.5" y="640" width="120" height="60" as="geometry" />
        </mxCell>
        <mxCell id="XUXB3hVBXkxuwXdUqQ0L-4" value="SUPPORT MANAGER" style="swimlane;startSize=20;html=1;" parent="XUXB3hVBXkxuwXdUqQ0L-1" vertex="1">
          <mxGeometry x="565" y="20" width="175" height="1070" as="geometry" />
        </mxCell>
        <mxCell id="B20dKyrCsiuIhfEmM-yy-10" value="Assign Agent(Support Agent,Support ticket)" style="rounded=1;whiteSpace=wrap;html=1;" vertex="1" parent="XUXB3hVBXkxuwXdUqQ0L-4">
          <mxGeometry x="12.5" y="50" width="125" height="70" as="geometry" />
        </mxCell>
        <mxCell id="B20dKyrCsiuIhfEmM-yy-42" style="edgeStyle=orthogonalEdgeStyle;rounded=0;orthogonalLoop=1;jettySize=auto;html=1;" edge="1" parent="XUXB3hVBXkxuwXdUqQ0L-4" source="B20dKyrCsiuIhfEmM-yy-39">
          <mxGeometry relative="1" as="geometry">
            <mxPoint x="68.75" y="590" as="targetPoint" />
          </mxGeometry>
        </mxCell>
        <mxCell id="B20dKyrCsiuIhfEmM-yy-39" value="Escalate Ticket" style="rounded=1;whiteSpace=wrap;html=1;" vertex="1" parent="XUXB3hVBXkxuwXdUqQ0L-4">
          <mxGeometry x="17.5" y="480" width="102.5" height="60" as="geometry" />
        </mxCell>
        <mxCell id="B20dKyrCsiuIhfEmM-yy-67" style="edgeStyle=orthogonalEdgeStyle;rounded=0;orthogonalLoop=1;jettySize=auto;html=1;" edge="1" parent="XUXB3hVBXkxuwXdUqQ0L-4" source="B20dKyrCsiuIhfEmM-yy-41">
          <mxGeometry relative="1" as="geometry">
            <mxPoint x="435" y="203.33328247070312" as="targetPoint" />
          </mxGeometry>
        </mxCell>
        <mxCell id="B20dKyrCsiuIhfEmM-yy-41" value="Review feedback" style="rounded=1;whiteSpace=wrap;html=1;" vertex="1" parent="XUXB3hVBXkxuwXdUqQ0L-4">
          <mxGeometry x="17.5" y="800" width="120" height="60" as="geometry" />
        </mxCell>
        <mxCell id="B20dKyrCsiuIhfEmM-yy-46" style="edgeStyle=orthogonalEdgeStyle;rounded=0;orthogonalLoop=1;jettySize=auto;html=1;" edge="1" parent="XUXB3hVBXkxuwXdUqQ0L-4" source="B20dKyrCsiuIhfEmM-yy-43">
          <mxGeometry relative="1" as="geometry">
            <mxPoint x="75" y="700" as="targetPoint" />
          </mxGeometry>
        </mxCell>
        <mxCell id="B20dKyrCsiuIhfEmM-yy-43" value="Escalate ticket to a more appropriate team" style="rounded=1;whiteSpace=wrap;html=1;" vertex="1" parent="XUXB3hVBXkxuwXdUqQ0L-4">
          <mxGeometry x="15" y="590" width="120" height="60" as="geometry" />
        </mxCell>
        <mxCell id="B20dKyrCsiuIhfEmM-yy-52" style="edgeStyle=orthogonalEdgeStyle;rounded=0;orthogonalLoop=1;jettySize=auto;html=1;" edge="1" parent="XUXB3hVBXkxuwXdUqQ0L-4" source="B20dKyrCsiuIhfEmM-yy-44">
          <mxGeometry relative="1" as="geometry">
            <mxPoint x="75" y="800" as="targetPoint" />
          </mxGeometry>
        </mxCell>
        <mxCell id="B20dKyrCsiuIhfEmM-yy-44" value="Resolved Ticket after escalation" style="rounded=1;whiteSpace=wrap;html=1;" vertex="1" parent="XUXB3hVBXkxuwXdUqQ0L-4">
          <mxGeometry x="15" y="700" width="120" height="60" as="geometry" />
        </mxCell>
        <mxCell id="B20dKyrCsiuIhfEmM-yy-45" value="KNOWLEDGE BASE" style="swimlane;startSize=20;html=1;" vertex="1" parent="XUXB3hVBXkxuwXdUqQ0L-1">
          <mxGeometry x="740" y="20" width="150" height="1070" as="geometry" />
        </mxCell>
        <mxCell id="B20dKyrCsiuIhfEmM-yy-60" value="Update Knowledge base" style="rounded=1;whiteSpace=wrap;html=1;" vertex="1" parent="B20dKyrCsiuIhfEmM-yy-45">
          <mxGeometry x="15" y="590" width="120" height="60" as="geometry" />
        </mxCell>
        <mxCell id="B20dKyrCsiuIhfEmM-yy-4" value="SUPPORT TEAM" style="swimlane;startSize=20;html=1;" vertex="1" parent="XUXB3hVBXkxuwXdUqQ0L-1">
          <mxGeometry x="890" y="20" width="180" height="1070" as="geometry" />
        </mxCell>
        <mxCell id="B20dKyrCsiuIhfEmM-yy-63" value="Add Member(Support Agent)" style="rounded=1;whiteSpace=wrap;html=1;" vertex="1" parent="B20dKyrCsiuIhfEmM-yy-4">
          <mxGeometry x="15" y="50" width="120" height="60" as="geometry" />
        </mxCell>
        <mxCell id="B20dKyrCsiuIhfEmM-yy-64" value="Remove Member(Support Agent)" style="rounded=1;whiteSpace=wrap;html=1;" vertex="1" parent="B20dKyrCsiuIhfEmM-yy-4">
          <mxGeometry x="60" y="160" width="100" height="45" as="geometry" />
        </mxCell>
        <mxCell id="B20dKyrCsiuIhfEmM-yy-9" style="edgeStyle=orthogonalEdgeStyle;rounded=0;orthogonalLoop=1;jettySize=auto;html=1;entryX=0;entryY=0.5;entryDx=0;entryDy=0;" edge="1" parent="XUXB3hVBXkxuwXdUqQ0L-1" source="B20dKyrCsiuIhfEmM-yy-7" target="B20dKyrCsiuIhfEmM-yy-8">
          <mxGeometry relative="1" as="geometry" />
        </mxCell>
        <mxCell id="B20dKyrCsiuIhfEmM-yy-12" style="edgeStyle=orthogonalEdgeStyle;rounded=0;orthogonalLoop=1;jettySize=auto;html=1;entryX=0.38;entryY=0;entryDx=0;entryDy=0;entryPerimeter=0;" edge="1" parent="XUXB3hVBXkxuwXdUqQ0L-1" source="B20dKyrCsiuIhfEmM-yy-8" target="B20dKyrCsiuIhfEmM-yy-10">
          <mxGeometry relative="1" as="geometry" />
        </mxCell>
        <mxCell id="B20dKyrCsiuIhfEmM-yy-13" style="edgeStyle=orthogonalEdgeStyle;rounded=0;orthogonalLoop=1;jettySize=auto;html=1;" edge="1" parent="XUXB3hVBXkxuwXdUqQ0L-1" source="B20dKyrCsiuIhfEmM-yy-10" target="B20dKyrCsiuIhfEmM-yy-11">
          <mxGeometry relative="1" as="geometry" />
        </mxCell>
        <mxCell id="B20dKyrCsiuIhfEmM-yy-26" style="edgeStyle=orthogonalEdgeStyle;rounded=0;orthogonalLoop=1;jettySize=auto;html=1;entryX=0;entryY=0.5;entryDx=0;entryDy=0;" edge="1" parent="XUXB3hVBXkxuwXdUqQ0L-1" source="B20dKyrCsiuIhfEmM-yy-14" target="B20dKyrCsiuIhfEmM-yy-25">
          <mxGeometry relative="1" as="geometry" />
        </mxCell>
        <mxCell id="B20dKyrCsiuIhfEmM-yy-37" style="edgeStyle=orthogonalEdgeStyle;rounded=0;orthogonalLoop=1;jettySize=auto;html=1;entryX=1;entryY=0.75;entryDx=0;entryDy=0;" edge="1" parent="XUXB3hVBXkxuwXdUqQ0L-1" source="B20dKyrCsiuIhfEmM-yy-34" target="B20dKyrCsiuIhfEmM-yy-36">
          <mxGeometry relative="1" as="geometry" />
        </mxCell>
        <mxCell id="B20dKyrCsiuIhfEmM-yy-40" style="edgeStyle=orthogonalEdgeStyle;rounded=0;orthogonalLoop=1;jettySize=auto;html=1;entryX=0;entryY=0.5;entryDx=0;entryDy=0;" edge="1" parent="XUXB3hVBXkxuwXdUqQ0L-1" source="B20dKyrCsiuIhfEmM-yy-38" target="B20dKyrCsiuIhfEmM-yy-39">
          <mxGeometry relative="1" as="geometry" />
        </mxCell>
        <mxCell id="B20dKyrCsiuIhfEmM-yy-62" style="edgeStyle=orthogonalEdgeStyle;rounded=0;orthogonalLoop=1;jettySize=auto;html=1;entryX=0.5;entryY=1;entryDx=0;entryDy=0;" edge="1" parent="XUXB3hVBXkxuwXdUqQ0L-1" source="B20dKyrCsiuIhfEmM-yy-56" target="B20dKyrCsiuIhfEmM-yy-60">
          <mxGeometry relative="1" as="geometry" />
        </mxCell>
        <mxCell id="B20dKyrCsiuIhfEmM-yy-65" style="edgeStyle=orthogonalEdgeStyle;rounded=0;orthogonalLoop=1;jettySize=auto;html=1;entryX=0.25;entryY=1;entryDx=0;entryDy=0;" edge="1" parent="XUXB3hVBXkxuwXdUqQ0L-1" source="B20dKyrCsiuIhfEmM-yy-41" target="B20dKyrCsiuIhfEmM-yy-63">
          <mxGeometry relative="1" as="geometry" />
        </mxCell>
        <mxCell id="B20dKyrCsiuIhfEmM-yy-80" style="edgeStyle=orthogonalEdgeStyle;rounded=0;orthogonalLoop=1;jettySize=auto;html=1;" edge="1" parent="XUXB3hVBXkxuwXdUqQ0L-1" source="B20dKyrCsiuIhfEmM-yy-54" target="B20dKyrCsiuIhfEmM-yy-60">
          <mxGeometry relative="1" as="geometry" />
        </mxCell>
        <mxCell id="B20dKyrCsiuIhfEmM-yy-47" style="edgeStyle=orthogonalEdgeStyle;rounded=0;orthogonalLoop=1;jettySize=auto;html=1;" edge="1" parent="XUXB3hVBXkxuwXdUqQ0L-1" source="B20dKyrCsiuIhfEmM-yy-44" target="B20dKyrCsiuIhfEmM-yy-48">
          <mxGeometry relative="1" as="geometry">
            <mxPoint x="215" y="750" as="targetPoint" />
          </mxGeometry>
        </mxCell>
      </root>
    </mxGraphModel>
  </diagram>
</mxfile>
